<svg width="48" height="48" viewBox="0 0 48 48" fill="none" xmlns="http://www.w3.org/2000/svg">
<path d="M36 4.95C32.55 2.775 28.425 1.5 24 1.5C19.575 1.5 15.45 2.775 12 4.95V42.975C15.45 45.15 19.575 46.425 24 46.425C28.425 46.425 32.55 45.15 36 42.975V4.95Z" fill="#F9F9F9"/>
<path d="M36 4.95V42.975C42.3 39.075 46.5 31.875 46.5 23.925C46.5 15.975 42.3 8.925 36 4.95ZM12 4.95C5.7 8.925 1.5 16.125 1.5 24C1.5 31.875 5.7 39.075 12 43.05V4.95ZM32.175 23.7C31.875 23.55 31.8 23.25 31.875 23.1L32.625 20.4L30 20.925C29.925 20.925 29.625 20.925 29.55 20.4L29.325 19.5L27.525 21.6C27.525 21.6 26.325 22.875 26.7 20.925L27.45 16.8L26.025 17.55C25.95 17.55 25.65 17.625 25.275 16.875L24 14.25L22.65 16.725C22.275 17.475 21.975 17.4 21.9 17.4L20.475 16.65L21.225 20.775C21.6 22.725 20.4 21.45 20.4 21.45L18.6 19.35L18.375 20.25C18.225 20.775 18 20.775 17.925 20.775L15.3 20.25L16.05 22.95C16.05 23.175 16.05 23.4 15.75 23.55L15 24C15 24 18 26.4 18.975 27.225C19.2 27.375 19.65 27.825 19.5 28.35L19.125 29.4L23.25 28.8C23.475 28.8 23.925 28.8 23.85 29.475L23.625 33.75H24.375L24.15 29.475C24.15 28.8 24.6 28.8 24.75 28.8L28.875 29.4L28.5 28.35C28.35 27.825 28.8 27.375 29.025 27.225C30 26.4 33 24 33 24L32.175 23.7Z" fill="#D80027"/>
</svg>
