<svg width="41" height="49" viewBox="0 0 41 49" fill="none" xmlns="http://www.w3.org/2000/svg">
<path fill-rule="evenodd" clip-rule="evenodd" d="M18.0413 2.48824C18.3664 3.46662 18.5289 4.83635 18.4314 5.91257C18.3664 7.15186 17.8463 8.68465 16.8711 10.8045C15.6358 13.5113 15.4408 14.1636 15.4733 16.0225C15.4733 17.1966 15.7008 18.6315 15.9609 19.2186L16.416 20.2948C16.5135 16.0551 16.676 15.5333 18.4964 11.9459C19.9917 9.0434 20.4793 7.70627 20.4793 6.72789C20.4793 6.01041 20.1218 4.7059 19.6992 3.79275C19.2766 2.91221 18.6264 1.8686 18.2364 1.50986L17.5537 0.857605L18.0413 2.48824ZM21.6171 12.9243C23.1774 10.2827 23.5675 9.33689 23.665 7.96715C23.7625 7.02139 23.8601 6.23868 23.9251 6.23868C23.9901 6.23868 24.2826 6.76048 24.5427 7.38013C24.8027 7.99977 25.0303 9.14121 25.0303 9.8913C25.0303 10.7718 24.7377 11.7502 24.2826 12.4351C23.8926 13.0547 22.8523 14.5223 21.9747 15.6964C21.097 16.8704 20.1868 18.2728 19.9267 18.7946C19.5041 19.7403 19.4716 19.7403 19.5691 17.9793C19.6667 16.4791 19.9917 15.6638 21.6171 12.9243ZM10.4022 10.4783C9.42698 11.0001 7.73662 12.2068 6.69641 13.1526C5.62368 14.0983 4.22589 15.6964 3.57575 16.6747C2.89311 17.6531 2.04793 19.2185 1.69035 20.0991C1.30027 21.0122 0.780164 22.6103 0.487602 23.6865C0.227548 24.7627 0 26.7521 0 28.0892C0 29.4263 0.260055 31.644 0.61763 32.9811C0.942698 34.3182 1.62534 36.2424 2.11294 37.2207C2.60055 38.1991 3.64076 39.8298 4.38842 40.8081C5.13608 41.7865 6.53387 43.2215 7.50908 43.9716C8.48428 44.7217 10.1746 45.7653 11.3124 46.3197C12.4176 46.8741 14.238 47.5916 15.3757 47.8851C16.481 48.1786 18.6264 48.4069 20.1542 48.4395C21.6821 48.4395 23.73 48.2438 24.7052 48.0156C25.6804 47.7547 27.5333 47.1024 28.7685 46.5154C30.0038 45.961 31.8567 44.8195 32.8319 44.0042C33.8071 43.1889 35.2049 41.7539 35.9525 40.7755C36.7002 39.7972 37.6429 38.297 38.098 37.3838C38.5531 36.5033 39.2032 34.9379 39.5283 33.9595C39.9834 32.5897 40.1459 31.22 40.1459 28.0892C40.1459 24.991 39.9834 23.5886 39.5283 22.2189C39.2032 21.2405 38.4231 19.4794 37.7729 18.3054C37.1228 17.0987 35.66 15.2398 34.3922 14.0005C33.1895 12.7612 31.6942 11.5545 31.1415 11.2936L30.0688 10.7718C31.5966 11.9133 32.6369 12.8591 33.417 13.6418C34.1647 14.4245 35.3349 15.892 35.9851 16.9356C36.6352 17.9466 37.5454 19.8056 38.0005 21.0775C38.6831 23.0016 38.8131 23.9474 38.8131 27.1108C38.8131 30.2742 38.7156 31.1874 38.033 32.9811C37.6104 34.1552 36.8952 35.7532 36.4401 36.5685C35.9851 37.3838 34.6848 38.9818 33.5145 40.1559C32.1818 41.4604 30.4914 42.7649 29.0936 43.4824C27.8583 44.1346 25.8754 44.9173 24.7052 45.2109C23.5349 45.5044 21.422 45.7653 19.9917 45.7653C18.5614 45.7653 16.4485 45.5044 15.2782 45.2109C14.108 44.9173 12.2876 44.1999 11.2149 43.6455C10.1421 43.0584 8.22423 41.5582 6.98897 40.319C5.68869 39.0471 4.22589 37.1881 3.67327 36.0793C3.08815 35.0031 2.34049 32.9485 1.95041 31.5135C1.59283 30.0786 1.30027 28.1218 1.30027 27.2086C1.30027 26.2629 1.49531 24.5018 1.75537 23.2951C2.01542 22.0558 2.53553 20.36 2.92561 19.4468C3.3157 18.5663 4.09586 17.1639 4.64848 16.3486C5.20109 15.5333 6.33883 14.1962 7.1515 13.3156C7.99668 12.4677 9.49199 11.3263 10.4997 10.8045C11.5074 10.25 12.3526 9.76085 12.3526 9.66301C12.3526 9.56517 12.3201 9.49995 12.2551 9.49995C12.2282 9.49995 11.6473 9.81124 10.8966 10.2135L10.8966 10.2135L10.4022 10.4783ZM24.2176 21.4036C24.7702 21.0775 25.7129 20.6861 26.3306 20.5556C26.9482 20.4252 27.6634 20.3926 27.8909 20.4578C28.0859 20.523 28.541 20.5883 28.8661 20.5883C29.1587 20.5883 30.0038 21.0775 30.719 21.6645C31.6942 22.4798 32.1818 23.2625 32.6369 24.6975C33.1895 26.3933 33.222 26.8825 32.897 28.7414C32.7019 29.9155 32.1168 31.644 31.6292 32.6224C31.1091 33.6007 30.0038 35.0683 29.0937 35.8836C28.216 36.7316 27.0457 37.5469 25.5179 38.1013L25.5504 34.4813C25.6154 31.1222 25.6804 30.6982 26.7532 28.2522C27.3708 26.8173 27.9884 25.2845 28.0859 24.8279C28.3135 24.0452 28.281 24.0452 27.5008 24.991C27.0132 25.5454 26.2656 26.7521 24.8678 29.3937L24.3152 28.6436C23.9901 28.2522 23.73 27.7631 23.73 27.6C23.73 27.4369 23.1449 26.5564 21.1945 24.0126L22.2022 23.0016C22.7873 22.4472 23.665 21.7297 24.2176 21.4036ZM11.3774 22.1537C11.1173 22.2841 10.4672 22.6755 9.97957 23.0342C9.45946 23.393 8.6793 24.4366 8.25671 25.3171C7.60658 26.6542 7.47655 27.4369 7.47655 29.6546C7.47655 31.3831 7.67159 32.9159 8.06167 34.0573C8.38674 34.9705 9.26442 36.6337 9.97957 37.7099C10.6947 38.7862 11.7674 40.0581 12.3851 40.5473C13.0027 41.0038 14.1404 41.6887 14.9531 42.08C15.8308 42.4714 17.0986 42.7649 18.1063 42.7649C19.049 42.7649 20.1542 42.6019 20.5443 42.4062C20.9669 42.2105 21.7145 41.6561 22.2021 41.1669C22.7222 40.7103 23.3399 39.9276 23.5999 39.4384C23.86 38.9166 24.2176 37.8404 24.3801 36.9925C24.6402 35.8836 24.6402 34.7422 24.3801 33.1442C24.1851 31.807 23.5999 29.9807 22.9823 28.7741C22.4297 27.6326 21.2919 25.9694 20.4793 25.1214C19.6666 24.2735 18.2363 23.1973 17.2936 22.7407C16.0258 22.1211 15.1157 21.8928 13.7504 21.9254C12.7101 21.9254 11.6374 22.0232 11.3774 22.1537ZM11.735 24.3061C11.7024 24.404 12.2226 25.8715 12.8727 27.5022C13.5228 29.1654 14.368 31.1222 14.7256 31.8397C15.0832 32.5571 16.3184 34.7096 17.4562 36.6337C18.5614 38.5905 19.5691 40.0907 19.6666 39.9928C19.7641 39.895 19.3741 38.6231 18.8214 37.1229C18.2688 35.6553 17.2936 33.4051 16.676 32.1658C16.0584 30.8939 14.7906 28.6436 13.8479 27.1434C12.9377 25.6432 12.0925 24.3713 11.995 24.2735C11.865 24.2083 11.7675 24.2083 11.735 24.3061Z" fill="#31ACA5"/>
</svg>
