<svg width="156" height="53" viewBox="0 0 156 53" fill="none" xmlns="http://www.w3.org/2000/svg">
<path fill-rule="evenodd" clip-rule="evenodd" d="M18.0413 4.48806C18.3664 5.46644 18.5289 6.83617 18.4314 7.91239C18.3664 9.15167 17.8463 10.6845 16.8711 12.8043C15.6358 15.5112 15.4408 16.1634 15.4733 18.0223C15.4733 19.1964 15.7008 20.6313 15.9609 21.2184L16.416 22.2946C16.5135 18.0549 16.676 17.5331 18.4964 13.9457C19.9917 11.0432 20.4793 9.70609 20.4793 8.72771C20.4793 8.01023 20.1218 6.70572 19.6992 5.79257C19.2766 4.91202 18.6264 3.86842 18.2364 3.50968L17.5537 2.85742L18.0413 4.48806ZM21.6171 14.9241C23.1774 12.2825 23.5675 11.3367 23.665 9.96697C23.7625 9.0212 23.8601 8.2385 23.9251 8.2385C23.9901 8.2385 24.2826 8.7603 24.5427 9.37994C24.8027 9.99958 25.0303 11.141 25.0303 11.8911C25.0303 12.7717 24.7377 13.75 24.2826 14.4349C23.8926 15.0546 22.8523 16.5221 21.9747 17.6962C21.097 18.8702 20.1868 20.2726 19.9267 20.7944C19.5041 21.7402 19.4716 21.7402 19.5691 19.9791C19.6667 18.4789 19.9917 17.6636 21.6171 14.9241ZM10.4022 12.4781C9.42698 12.9999 7.73662 14.2066 6.69641 15.1524C5.62368 16.0982 4.22589 17.6962 3.57575 18.6746C2.89311 19.6529 2.04793 21.2183 1.69035 22.0989C1.30027 23.0121 0.780164 24.6101 0.487602 25.6863C0.227548 26.7625 0 28.7519 0 30.089C0 31.4261 0.260055 33.6438 0.61763 34.9809C0.942698 36.318 1.62534 38.2422 2.11294 39.2206C2.60055 40.1989 3.64076 41.8296 4.38842 42.808C5.13608 43.7863 6.53387 45.2213 7.50908 45.9714C8.48428 46.7215 10.1746 47.7651 11.3124 48.3195C12.4176 48.8739 14.238 49.5914 15.3757 49.8849C16.481 50.1784 18.6264 50.4067 20.1542 50.4393C21.6821 50.4393 23.73 50.2437 24.7052 50.0154C25.6804 49.7545 27.5333 49.1022 28.7685 48.5152C30.0038 47.9608 31.8567 46.8193 32.8319 46.004C33.8071 45.1887 35.2049 43.7537 35.9525 42.7754C36.7002 41.797 37.6429 40.2968 38.098 39.3836C38.5531 38.5031 39.2032 36.9377 39.5283 35.9593C39.9834 34.5896 40.1459 33.2198 40.1459 30.089C40.1459 26.9908 39.9834 25.5885 39.5283 24.2187C39.2032 23.2403 38.4231 21.4793 37.7729 20.3052C37.1228 19.0985 35.66 17.2396 34.3922 16.0003C33.1895 14.761 31.6942 13.5544 31.1415 13.2935L30.0688 12.7717C31.5966 13.9131 32.6369 14.8589 33.417 15.6416C34.1647 16.4243 35.3349 17.8919 35.9851 18.9355C36.6352 19.9465 37.5454 21.8054 38.0005 23.0773C38.6831 25.0014 38.8131 25.9472 38.8131 29.1106C38.8131 32.2741 38.7156 33.1872 38.033 34.9809C37.6104 36.155 36.8952 37.753 36.4401 38.5683C35.9851 39.3836 34.6848 40.9817 33.5145 42.1557C32.1818 43.4602 30.4914 44.7647 29.0936 45.4822C27.8583 46.1345 25.8754 46.9172 24.7052 47.2107C23.5349 47.5042 21.422 47.7651 19.9917 47.7651C18.5614 47.7651 16.4485 47.5042 15.2782 47.2107C14.108 46.9172 12.2876 46.1997 11.2149 45.6453C10.1421 45.0582 8.22423 43.5581 6.98897 42.3188C5.68869 41.0469 4.22589 39.188 3.67327 38.0791C3.08815 37.0029 2.34049 34.9483 1.95041 33.5133C1.59283 32.0784 1.30027 30.1216 1.30027 29.2085C1.30027 28.2627 1.49531 26.5016 1.75537 25.2949C2.01542 24.0557 2.53553 22.3598 2.92561 21.4466C3.3157 20.5661 4.09586 19.1637 4.64848 18.3484C5.20109 17.5331 6.33883 16.196 7.1515 15.3155C7.99668 14.4675 9.49199 13.3261 10.4997 12.8043C11.5074 12.2499 12.3526 11.7607 12.3526 11.6628C12.3526 11.565 12.3201 11.4998 12.2551 11.4998C12.2282 11.4998 11.6473 11.8111 10.8966 12.2133L10.8966 12.2134L10.4022 12.4781ZM24.2176 23.4034C24.7702 23.0773 25.7129 22.6859 26.3306 22.5555C26.9482 22.425 27.6634 22.3924 27.8909 22.4576C28.0859 22.5229 28.541 22.5881 28.8661 22.5881C29.1587 22.5881 30.0038 23.0773 30.719 23.6643C31.6942 24.4796 32.1818 25.2623 32.6369 26.6973C33.1895 28.3931 33.222 28.8823 32.897 30.7413C32.7019 31.9153 32.1168 33.6438 31.6292 34.6222C31.1091 35.6005 30.0038 37.0681 29.0937 37.8834C28.216 38.7314 27.0457 39.5467 25.5179 40.1011L25.5504 36.4811C25.6154 33.122 25.6804 32.698 26.7532 30.2521C27.3708 28.8171 27.9884 27.2843 28.0859 26.8277C28.3135 26.045 28.281 26.045 27.5008 26.9908C27.0132 27.5452 26.2656 28.7519 24.8678 31.3935L24.3152 30.6434C23.9901 30.2521 23.73 29.7629 23.73 29.5998C23.73 29.4367 23.1449 28.5562 21.1945 26.0124L22.2022 25.0014C22.7873 24.447 23.665 23.7295 24.2176 23.4034ZM11.3774 24.1535C11.1173 24.284 10.4672 24.6753 9.97957 25.034C9.45946 25.3928 8.6793 26.4364 8.25671 27.3169C7.60658 28.6541 7.47655 29.4368 7.47655 31.6544C7.47655 33.3829 7.67159 34.9157 8.06167 36.0571C8.38674 36.9703 9.26442 38.6335 9.97957 39.7098C10.6947 40.786 11.7674 42.0579 12.3851 42.5471C13.0027 43.0036 14.1404 43.6885 14.9531 44.0799C15.8308 44.4712 17.0986 44.7647 18.1063 44.7647C19.049 44.7647 20.1542 44.6017 20.5443 44.406C20.9669 44.2103 21.7145 43.6559 22.2021 43.1667C22.7222 42.7101 23.3399 41.9274 23.5999 41.4382C23.86 40.9164 24.2176 39.8402 24.3801 38.9923C24.6402 37.8834 24.6402 36.742 24.3801 35.144C24.1851 33.8069 23.5999 31.9806 22.9823 30.7739C22.4297 29.6324 21.2919 27.9692 20.4793 27.1213C19.6666 26.2733 18.2363 25.1971 17.2936 24.7405C16.0258 24.1209 15.1157 23.8926 13.7504 23.9252C12.7101 23.9252 11.6374 24.0231 11.3774 24.1535ZM11.735 26.3059C11.7024 26.4038 12.2226 27.8713 12.8727 29.502C13.5228 31.1652 14.368 33.122 14.7256 33.8395C15.0832 34.557 16.3184 36.7094 17.4562 38.6335C18.5614 40.5903 19.5691 42.0905 19.6666 41.9926C19.7641 41.8948 19.3741 40.6229 18.8214 39.1227C18.2688 37.6552 17.2936 35.4049 16.676 34.1656C16.0584 32.8937 14.7906 30.6434 13.8479 29.1432C12.9377 27.6431 12.0925 26.3712 11.995 26.2733C11.865 26.2081 11.7675 26.2081 11.735 26.3059Z" fill="#31ACA5"/>
<path fill-rule="evenodd" clip-rule="evenodd" d="M138.713 26.3832C134.896 35.5173 133.687 37.9707 132.251 39.7824L131.773 40.3692C131.24 41.0239 131.708 42.0041 132.552 42.0007L136.938 41.9828C137.873 41.979 138.319 40.7725 137.707 40.0656C137.353 39.6561 137.094 39.2984 136.899 38.9898C136.446 38.2349 136.106 37.0271 136.106 36.1589C136.106 35.3286 136.181 34.2717 136.295 33.8188C136.483 32.9884 136.597 32.9507 140.716 33.0639L144.801 33.1368C144.891 33.1384 144.97 33.1932 145.003 33.276C147.594 39.7458 147.627 39.8278 146.989 40.9147C146.692 41.393 147.035 42.012 147.598 42.014L154.21 42.038C155.111 42.0413 155.573 40.924 155.003 40.2261C153.974 38.9689 153.366 37.8328 152.847 36.5364C152.35 35.2534 150.997 31.9207 149.553 28.3653C149.128 27.3183 148.695 26.252 148.274 25.2131C146.422 20.646 144.722 16.5319 144.495 16.0789C144.231 15.5883 143.89 15.2108 143.701 15.2108C143.513 15.2108 141.283 20.2308 138.713 26.3832ZM140.64 23.5146C140.64 23.6278 139.885 25.5905 138.94 27.8552C137.995 30.1198 137.239 32.0448 137.239 32.1203C137.239 32.158 138.864 32.1958 140.829 32.1958C142.794 32.1958 144.419 32.1203 144.419 32.007C144.419 31.9213 144.008 30.8614 143.447 29.4175C143.267 28.9548 143.072 28.4527 142.87 27.9306C142.001 25.817 141.132 23.892 140.943 23.7033C140.792 23.5146 140.64 23.4013 140.64 23.5146Z" fill="#31ACA5"/>
<path fill-rule="evenodd" clip-rule="evenodd" d="M113.054 16.4563C113.772 17.5886 113.809 18.3812 113.809 28.61C113.847 39.0274 113.809 39.5936 113.054 40.6127C112.638 41.1788 112.298 41.7073 112.298 41.8205C112.298 41.9337 114.338 42.0092 116.833 42.0092H119.59C120.37 42.0092 120.837 41.1599 120.526 40.4451C119.919 39.0506 119.856 37.7639 119.856 34.5358V30.5536C119.856 30.0013 120.308 29.5536 120.86 29.5532C128.984 29.5468 129.739 29.4492 131.193 28.7232C132.327 28.157 133.158 27.3644 133.725 26.3453C134.33 25.2884 134.594 24.1939 134.594 22.6463C134.594 21.2875 134.33 20.0042 133.876 19.0984C133.498 18.3057 132.856 17.3621 132.478 17.0224C132.062 16.645 131.08 16.1166 130.248 15.8146C129.114 15.3617 126.771 15.2484 120.536 15.2107H113.773C113.134 15.2107 112.734 15.9025 113.054 16.4563ZM119.856 22.3822V27.7987C119.856 28.351 120.305 28.8002 120.857 28.7899C123.494 28.7407 124.638 28.4865 125.449 28.0816C126.242 27.6664 127.187 26.7605 127.678 25.9301C128.245 24.9488 128.51 23.8164 128.547 22.4576C128.547 21.4008 128.321 20.042 128.018 19.4381C127.716 18.8719 127.074 18.0415 126.582 17.6264C126.129 17.1734 125.109 16.645 124.391 16.3808C123.673 16.1543 122.35 15.9656 121.443 15.9656H120.856C120.303 15.9656 119.856 16.4133 119.856 16.9656V22.3822Z" fill="#31ACA5"/>
<path d="M72.7608 25.89C72.5352 17.947 72.4224 16.8449 71.8207 16.0848C71.5367 15.7374 71.7864 15.2163 72.2351 15.22L75.6941 15.2487C78.2513 15.2487 80.3196 15.3627 80.3196 15.5147C80.3196 15.7048 80.0188 16.1228 79.6427 16.5409C79.0786 17.1489 79.0034 18.2891 78.8906 25.0919C78.8154 29.7284 78.9282 33.7189 79.1538 34.935C79.4171 36.1132 79.9812 37.4053 80.5829 38.0894C81.1846 38.7735 82.0871 39.5336 82.6512 39.7996C83.2529 40.1036 84.6819 40.3317 85.8477 40.3317C87.3896 40.2937 88.4425 40.0656 89.4955 39.4576C90.2852 39.0015 91.3758 37.8994 91.9399 36.9113C92.9166 35.2029 92.9176 35.1252 93.0301 26.677L93.0305 26.65C93.1203 20.2971 93.0909 18.5918 92.3355 16.7611C92.0462 16.0601 92.5244 15.2592 93.2826 15.2678L98.2953 15.3247L98.3338 15.3254C104.914 15.4387 105.03 15.4407 106.569 16.4648C107.546 17.1489 108.449 18.137 108.9 19.1252C109.314 20.0373 109.652 21.5954 109.652 22.6596C109.652 23.9137 109.389 25.1299 108.825 26.232C108.223 27.4101 107.471 28.1702 106.268 28.8163C104.726 29.6144 104.124 29.6904 99.7619 29.6904C96.8287 29.6904 94.986 29.5384 94.986 29.3104C94.986 29.0823 95.9637 28.9303 97.1295 28.9303C98.7842 28.9303 99.6115 28.7403 100.589 28.0942C101.304 27.6002 102.244 26.7261 102.658 26.156C103.146 25.4719 103.485 24.3318 103.56 23.1156C103.673 21.6335 103.485 20.7213 102.808 19.4292C102.169 18.175 101.492 17.491 100.251 16.8449C99.0098 16.2368 98.0321 16.0088 96.6782 16.0848C94.9108 16.1988 94.7603 16.2748 94.3467 17.529C94.0834 18.3651 93.8954 21.4814 93.8578 25.6999C93.8578 29.6904 93.6322 33.4148 93.3689 34.631C93.1057 35.7711 92.504 37.3673 91.9775 38.1654C91.451 38.9635 90.21 40.1416 89.157 40.8257C87.3519 42.0039 87.1639 42.0419 83.2905 42.0419H83.2905C79.3043 42.0419 79.3043 42.0419 77.1983 40.5977C75.506 39.4956 74.8291 38.7355 74.0018 36.9873C73.024 34.859 72.9864 34.631 72.7608 25.89Z" fill="#31ACA5"/>
<path d="M55.0507 16.6998C55.9135 16.0919 57.414 15.408 58.3518 15.1801C59.3271 14.8761 61.0527 14.7621 62.4782 14.8761C63.9412 15.0281 65.7043 15.484 66.9047 16.0159C68.0301 16.5859 69.193 17.4977 69.6807 18.2196C70.1308 18.8655 70.581 20.1193 70.656 20.9552C70.7685 22.095 70.6185 22.7409 70.0183 23.5388C69.3431 24.4126 68.9679 24.5646 67.3549 24.5646C65.7793 24.5646 65.2917 24.3746 64.4664 23.5008C63.8662 22.8929 63.0784 21.3351 62.6658 20.0053C62.2531 18.6755 61.6154 17.1938 61.2778 16.6998C60.8277 16.1299 60.2275 15.826 59.4772 15.826C58.877 15.826 58.1267 16.1299 57.8266 16.5099C57.5265 16.8518 57.0389 17.7637 56.7013 18.4856C56.4012 19.2074 56.026 21.1071 55.876 22.6649C55.7259 24.4126 55.801 26.5403 56.0635 28.174C56.3261 29.6178 56.9263 31.7455 57.414 32.8473C58.0517 34.1391 58.877 35.2029 59.9274 35.9628C61.2778 36.9126 61.878 37.1026 63.6036 37.1026C65.0666 37.1026 66.117 36.8367 67.1673 36.1908C67.9926 35.6968 69.2305 34.633 69.9057 33.8351C70.5435 33.0373 71.1062 32.4673 71.1062 32.6573C71.1062 32.8093 70.731 33.8351 70.2434 34.937C69.7557 36.0008 68.6303 37.7485 67.6925 38.7364C66.7922 39.7622 65.3667 40.902 64.5414 41.3199C63.5286 41.8139 62.2156 42.0418 60.415 42.0418C58.2768 42.0418 57.414 41.8519 55.7634 41.016C54.6381 40.4081 53.2501 39.3443 52.6499 38.6224C52.0497 37.9005 51.2244 36.3427 50.7742 35.2029C50.099 33.5312 49.949 32.2774 49.949 28.9339C49.9114 25.7044 50.0615 24.3366 50.6242 22.8549C51.0368 21.829 51.8246 20.2333 52.4248 19.3594C52.9875 18.4476 54.1879 17.2697 55.0507 16.6998Z" fill="#31ACA5"/>
<path fill-rule="evenodd" clip-rule="evenodd" d="M81.8008 0.661979C81.3473 0.737806 80.7805 1.07903 80.5915 1.38234C80.2892 1.76147 80.327 1.98895 80.8182 2.25435C81.1962 2.406 82.67 2.89887 84.106 3.27801C85.5043 3.65714 86.8269 4.22585 87.0159 4.49124C87.2804 4.83246 86.7891 5.05994 85.1641 5.36325C83.9926 5.59073 81.8386 6.12152 80.4026 6.57648C78.9665 7.03144 77.6061 7.71388 77.3793 8.05511C77.0392 8.58589 77.1526 8.8892 77.9084 9.64747C78.8154 10.5953 79.0799 10.6332 84.0304 10.709C87.4316 10.7849 89.3967 10.9744 89.699 11.2778C90.1147 11.6569 90.0769 11.8465 89.6234 12.3772C89.3211 12.7185 88.3763 13.2872 87.5449 13.6663C86.7157 14.0407 86.3414 14.2097 86.3595 14.2922C86.3745 14.3602 86.6553 14.3695 87.167 14.3867C87.7717 14.3867 89.3211 14.1592 90.5682 13.8559C91.8152 13.5526 93.1379 12.9839 93.5158 12.6426C93.8937 12.2635 94.1583 11.619 94.0827 11.2019C94.0071 10.747 93.2891 10.1024 92.2687 9.60956C90.9461 8.92712 89.5856 8.69963 85.8822 8.47215C83.3502 8.28259 81.1584 8.05511 81.0828 7.90345C81.0072 7.71388 81.2339 7.52432 81.5741 7.44849C81.7469 7.41381 82.1728 7.31566 82.7324 7.1867C83.3961 7.03374 84.2479 6.83744 85.0886 6.65231C86.638 6.27317 88.2252 5.81821 88.5653 5.66656C88.9432 5.47699 89.2455 5.05994 89.2455 4.75663C89.2455 4.45333 88.6786 3.96045 87.9984 3.65714C87.356 3.35384 85.6554 2.78513 84.2572 2.406C82.8589 2.02686 81.8008 1.64773 81.9142 1.53399C82.0275 1.42025 82.67 1.15485 83.3124 0.88946C84.4083 0.510326 84.4083 0.472412 83.5769 0.472412C83.0479 0.472412 82.2543 0.586153 81.8008 0.661979ZM85.0885 12.1498C85.0885 12.3393 84.4083 12.7185 83.5769 12.908C82.7455 13.0976 82.0653 13.363 82.0653 13.4768C82.0653 13.5905 82.7077 13.5526 83.5013 13.4388C84.2571 13.3251 85.3909 13.0218 85.9577 12.7943C86.5246 12.5289 87.0158 12.2256 86.978 12.074C86.978 11.8844 86.5624 11.7706 86.0333 11.7706C85.5042 11.7706 85.0885 11.9223 85.0885 12.1498Z" fill="#31ACA5"/>
<path d="M153.008 51.966C153.053 51.9866 153.111 52.0051 153.181 52.0215C153.255 52.0421 153.327 52.0524 153.397 52.0524C153.623 52.0524 153.8 52.001 153.927 51.8981C154.055 51.7994 154.17 51.637 154.273 51.4108C154.014 50.9172 153.771 50.3948 153.545 49.8437C153.323 49.2884 153.138 48.727 152.99 48.1594H153.607C153.652 48.3445 153.705 48.544 153.767 48.7579C153.833 48.9717 153.905 49.1918 153.983 49.418C154.061 49.6442 154.145 49.8704 154.236 50.0966C154.326 50.3229 154.421 50.5409 154.52 50.7506C154.676 50.3188 154.812 49.891 154.927 49.4674C155.042 49.0437 155.151 48.6077 155.254 48.1594H155.846C155.698 48.764 155.533 49.346 155.352 49.9054C155.172 50.4607 154.976 50.9809 154.766 51.4663C154.684 51.6514 154.598 51.8097 154.507 51.9413C154.421 52.0771 154.324 52.1881 154.217 52.2745C154.11 52.3609 153.989 52.4246 153.853 52.4657C153.722 52.5069 153.572 52.5274 153.403 52.5274C153.358 52.5274 153.31 52.5233 153.261 52.5151C153.212 52.511 153.162 52.5028 153.113 52.4904C153.068 52.4822 153.025 52.4719 152.983 52.4596C152.946 52.4472 152.92 52.437 152.903 52.4287L153.008 51.966Z" fill="#31ACA5"/>
<path d="M151.439 48.1594H152.654V48.6407H151.439V50.1213C151.439 50.2817 151.451 50.4154 151.476 50.5223C151.501 50.6252 151.538 50.7074 151.587 50.7691C151.636 50.8267 151.698 50.8678 151.772 50.8925C151.846 50.9172 151.933 50.9295 152.031 50.9295C152.204 50.9295 152.342 50.911 152.445 50.874C152.552 50.8329 152.626 50.8041 152.667 50.7876L152.778 51.2627C152.72 51.2915 152.619 51.3264 152.475 51.3676C152.331 51.4128 152.167 51.4354 151.982 51.4354C151.764 51.4354 151.583 51.4087 151.439 51.3552C151.299 51.2977 151.186 51.2133 151.1 51.1023C151.013 50.9912 150.952 50.8555 150.915 50.6951C150.882 50.5306 150.865 50.3414 150.865 50.1275V47.2649L151.439 47.1661V48.1594Z" fill="#31ACA5"/>
<path d="M149.915 51.3675H149.342V48.1594H149.915V51.3675ZM149.625 47.5795C149.523 47.5795 149.434 47.5466 149.36 47.4808C149.29 47.4108 149.255 47.3183 149.255 47.2031C149.255 47.088 149.29 46.9975 149.36 46.9317C149.434 46.8617 149.523 46.8268 149.625 46.8268C149.728 46.8268 149.815 46.8617 149.885 46.9317C149.959 46.9975 149.996 47.088 149.996 47.2031C149.996 47.3183 149.959 47.4108 149.885 47.4808C149.815 47.5466 149.728 47.5795 149.625 47.5795Z" fill="#31ACA5"/>
<path d="M145.799 48.252C145.931 48.2191 146.105 48.1841 146.323 48.1471C146.541 48.1101 146.792 48.0916 147.076 48.0916C147.331 48.0916 147.543 48.1286 147.712 48.2026C147.88 48.2725 148.014 48.3733 148.113 48.5049C148.215 48.6324 148.287 48.7867 148.329 48.9676C148.37 49.1486 148.39 49.3481 148.39 49.5661V51.3676H147.817V49.6895C147.817 49.492 147.802 49.3234 147.773 49.1836C147.749 49.0437 147.705 48.9306 147.644 48.8442C147.582 48.7579 147.5 48.6962 147.397 48.6591C147.294 48.618 147.167 48.5975 147.014 48.5975C146.953 48.5975 146.889 48.5995 146.823 48.6036C146.757 48.6077 146.694 48.6139 146.632 48.6221C146.574 48.6262 146.521 48.6324 146.472 48.6406C146.426 48.6489 146.393 48.655 146.373 48.6591V51.3676H145.799V48.252Z" fill="#31ACA5"/>
<path d="M144.811 51.275C144.679 51.3079 144.504 51.3429 144.286 51.3799C144.072 51.4169 143.823 51.4354 143.54 51.4354C143.293 51.4354 143.085 51.4005 142.917 51.3306C142.748 51.2565 142.612 51.1537 142.509 51.0221C142.407 50.8905 142.333 50.7362 142.287 50.5594C142.242 50.3784 142.219 50.1789 142.219 49.9609V48.1594H142.793V49.8375C142.793 50.2283 142.855 50.508 142.978 50.6766C143.102 50.8452 143.309 50.9295 143.601 50.9295C143.663 50.9295 143.727 50.9275 143.793 50.9234C143.858 50.9193 143.92 50.9151 143.978 50.911C144.035 50.9028 144.087 50.8966 144.132 50.8925C144.181 50.8843 144.216 50.8761 144.237 50.8678V48.1594H144.811V51.275Z" fill="#31ACA5"/>
<path d="M136.942 48.252C137.074 48.2191 137.247 48.1841 137.461 48.1471C137.679 48.1101 137.93 48.0916 138.213 48.0916C138.419 48.0916 138.592 48.1203 138.732 48.1779C138.871 48.2314 138.989 48.3116 139.083 48.4185C139.112 48.398 139.157 48.3692 139.219 48.3322C139.281 48.2951 139.357 48.2602 139.447 48.2273C139.538 48.1903 139.638 48.1594 139.75 48.1347C139.861 48.1059 139.98 48.0916 140.107 48.0916C140.354 48.0916 140.556 48.1286 140.712 48.2026C140.868 48.2725 140.99 48.3733 141.076 48.5049C141.166 48.6365 141.226 48.7928 141.255 48.9738C141.288 49.1548 141.304 49.3522 141.304 49.5661V51.3676H140.73V49.6895C140.73 49.5003 140.72 49.3378 140.7 49.2021C140.683 49.0663 140.648 48.9532 140.595 48.8627C140.545 48.7723 140.475 48.7064 140.385 48.6653C140.299 48.6201 140.186 48.5975 140.046 48.5975C139.852 48.5975 139.692 48.6242 139.564 48.6777C139.441 48.727 139.357 48.7723 139.312 48.8134C139.344 48.9203 139.369 49.0375 139.386 49.165C139.402 49.2926 139.41 49.4262 139.41 49.5661V51.3676H138.836V49.6895C138.836 49.5003 138.826 49.3378 138.806 49.2021C138.785 49.0663 138.748 48.9532 138.695 48.8627C138.645 48.7723 138.575 48.7064 138.485 48.6653C138.398 48.6201 138.287 48.5975 138.152 48.5975C138.094 48.5975 138.032 48.5995 137.967 48.6036C137.901 48.6077 137.837 48.6139 137.775 48.6221C137.718 48.6262 137.664 48.6324 137.615 48.6406C137.566 48.6489 137.533 48.655 137.516 48.6591V51.3676H136.942V48.252Z" fill="#31ACA5"/>
<path d="M131.628 48.252C131.76 48.2191 131.933 48.1841 132.147 48.1471C132.365 48.1101 132.616 48.0916 132.899 48.0916C133.105 48.0916 133.278 48.1203 133.418 48.1779C133.557 48.2314 133.675 48.3116 133.769 48.4185C133.798 48.398 133.843 48.3692 133.905 48.3322C133.967 48.2951 134.043 48.2602 134.133 48.2273C134.224 48.1903 134.325 48.1594 134.436 48.1347C134.547 48.1059 134.666 48.0916 134.793 48.0916C135.04 48.0916 135.242 48.1286 135.398 48.2026C135.554 48.2725 135.676 48.3733 135.762 48.5049C135.853 48.6365 135.912 48.7928 135.941 48.9738C135.974 49.1548 135.99 49.3522 135.99 49.5661V51.3676H135.417V49.6895C135.417 49.5003 135.406 49.3378 135.386 49.2021C135.369 49.0663 135.334 48.9532 135.281 48.8627C135.231 48.7723 135.162 48.7064 135.071 48.6653C134.985 48.6201 134.872 48.5975 134.732 48.5975C134.538 48.5975 134.378 48.6242 134.251 48.6777C134.127 48.727 134.043 48.7723 133.998 48.8134C134.03 48.9203 134.055 49.0375 134.072 49.165C134.088 49.2926 134.096 49.4262 134.096 49.5661V51.3676H133.523V49.6895C133.523 49.5003 133.512 49.3378 133.492 49.2021C133.471 49.0663 133.434 48.9532 133.381 48.8627C133.331 48.7723 133.261 48.7064 133.171 48.6653C133.084 48.6201 132.973 48.5975 132.838 48.5975C132.78 48.5975 132.718 48.5995 132.653 48.6036C132.587 48.6077 132.523 48.6139 132.461 48.6221C132.404 48.6262 132.35 48.6324 132.301 48.6406C132.252 48.6489 132.219 48.655 132.202 48.6591V51.3676H131.628V48.252Z" fill="#31ACA5"/>
<path d="M130.821 49.7635C130.821 50.0185 130.784 50.2488 130.71 50.4545C130.636 50.6601 130.531 50.837 130.396 50.9851C130.264 51.1331 130.106 51.2483 129.921 51.3306C129.735 51.4087 129.534 51.4478 129.316 51.4478C129.098 51.4478 128.896 51.4087 128.711 51.3306C128.526 51.2483 128.366 51.1331 128.23 50.9851C128.098 50.837 127.996 50.6601 127.922 50.4545C127.848 50.2488 127.811 50.0185 127.811 49.7635C127.811 49.5126 127.848 49.2843 127.922 49.0787C127.996 48.8689 128.098 48.69 128.23 48.5419C128.366 48.3939 128.526 48.2808 128.711 48.2026C128.896 48.1204 129.098 48.0792 129.316 48.0792C129.534 48.0792 129.735 48.1204 129.921 48.2026C130.106 48.2808 130.264 48.3939 130.396 48.5419C130.531 48.69 130.636 48.8689 130.71 49.0787C130.784 49.2843 130.821 49.5126 130.821 49.7635ZM130.223 49.7635C130.223 49.4016 130.141 49.1157 129.976 48.9059C129.816 48.6921 129.596 48.5851 129.316 48.5851C129.036 48.5851 128.814 48.6921 128.65 48.9059C128.489 49.1157 128.409 49.4016 128.409 49.7635C128.409 50.1254 128.489 50.4134 128.65 50.6272C128.814 50.837 129.036 50.9419 129.316 50.9419C129.596 50.9419 129.816 50.837 129.976 50.6272C130.141 50.4134 130.223 50.1254 130.223 49.7635Z" fill="#31ACA5"/>
<path d="M126.13 51.4601C125.829 51.4601 125.556 51.4108 125.309 51.3121C125.062 51.2134 124.85 51.0694 124.674 50.8802C124.497 50.691 124.359 50.4586 124.26 50.183C124.166 49.9034 124.118 49.5846 124.118 49.2268C124.118 48.8689 124.172 48.5522 124.279 48.2767C124.39 47.997 124.538 47.7625 124.723 47.5733C124.908 47.3841 125.124 47.2402 125.371 47.1415C125.617 47.0428 125.881 46.9934 126.16 46.9934C126.337 46.9934 126.496 47.0057 126.635 47.0304C126.779 47.0551 126.903 47.0839 127.006 47.1168C127.113 47.1497 127.199 47.1826 127.265 47.2155C127.331 47.2484 127.376 47.2731 127.4 47.2895L127.228 47.7831C127.191 47.7584 127.137 47.7317 127.067 47.7029C126.997 47.6741 126.917 47.6453 126.827 47.6165C126.74 47.5877 126.644 47.5651 126.537 47.5487C126.434 47.5281 126.329 47.5178 126.222 47.5178C125.996 47.5178 125.792 47.5569 125.611 47.635C125.43 47.7132 125.276 47.8263 125.149 47.9744C125.021 48.1224 124.922 48.3034 124.852 48.5173C124.787 48.727 124.754 48.9635 124.754 49.2268C124.754 49.4818 124.783 49.7142 124.84 49.9239C124.902 50.1337 124.992 50.3147 125.112 50.4668C125.231 50.6149 125.379 50.7301 125.556 50.8123C125.737 50.8946 125.946 50.9357 126.185 50.9357C126.461 50.9357 126.689 50.9069 126.87 50.8494C127.051 50.7918 127.187 50.7404 127.277 50.6951L127.431 51.1887C127.402 51.2092 127.351 51.236 127.277 51.2689C127.203 51.2977 127.11 51.3265 126.999 51.3553C126.888 51.384 126.759 51.4087 126.611 51.4293C126.463 51.4498 126.302 51.4601 126.13 51.4601Z" fill="#31ACA5"/>
<path d="M119.201 49.7697C119.201 49.4859 119.242 49.2391 119.324 49.0294C119.407 48.8155 119.516 48.6386 119.651 48.4988C119.787 48.359 119.943 48.2541 120.12 48.1842C120.297 48.1142 120.478 48.0793 120.663 48.0793C121.095 48.0793 121.426 48.215 121.656 48.4865C121.887 48.7538 122.002 49.163 122.002 49.7142C122.002 49.7389 122.002 49.7718 122.002 49.8129C122.002 49.8499 122 49.8849 121.996 49.9178H119.799C119.824 50.2509 119.921 50.5039 120.089 50.6766C120.258 50.8494 120.521 50.9358 120.879 50.9358C121.081 50.9358 121.249 50.9193 121.385 50.8864C121.525 50.8494 121.63 50.8144 121.7 50.7815L121.78 51.2627C121.71 51.2998 121.586 51.3388 121.41 51.38C121.237 51.4211 121.039 51.4417 120.817 51.4417C120.538 51.4417 120.295 51.4005 120.089 51.3183C119.888 51.2319 119.721 51.1147 119.59 50.9666C119.458 50.8185 119.359 50.6437 119.293 50.4422C119.232 50.2365 119.201 50.0124 119.201 49.7697ZM121.403 49.4551C121.407 49.1959 121.342 48.9841 121.206 48.8196C121.074 48.651 120.891 48.5667 120.657 48.5667C120.525 48.5667 120.408 48.5934 120.305 48.6469C120.206 48.6962 120.122 48.762 120.052 48.8443C119.982 48.9265 119.927 49.0211 119.886 49.1281C119.849 49.235 119.824 49.344 119.812 49.4551H121.403ZM121.397 46.9441L120.527 47.7893L120.237 47.5302L121.027 46.5801L121.397 46.9441Z" fill="#31ACA5"/>
<path d="M118.252 46.5801C118.421 46.5801 118.565 46.5924 118.684 46.6171C118.808 46.6418 118.894 46.6644 118.943 46.685L118.839 47.1785C118.789 47.1538 118.719 47.1312 118.629 47.1107C118.538 47.086 118.427 47.0736 118.296 47.0736C118.028 47.0736 117.841 47.1477 117.734 47.2957C117.627 47.4397 117.574 47.6351 117.574 47.8818V48.1595H118.808V48.6407H117.574V51.3676H117V47.8695C117 47.4582 117.101 47.1415 117.302 46.9194C117.504 46.6932 117.821 46.5801 118.252 46.5801Z" fill="#31ACA5"/>
<path d="M114.862 50.9542C114.998 50.9542 115.117 50.9522 115.22 50.948C115.327 50.9398 115.416 50.9275 115.486 50.911V49.9548C115.444 49.9342 115.377 49.9177 115.282 49.9054C115.192 49.8889 115.08 49.8807 114.949 49.8807C114.862 49.8807 114.77 49.8869 114.671 49.8992C114.577 49.9116 114.488 49.9383 114.406 49.9794C114.328 50.0164 114.262 50.0699 114.209 50.1398C114.155 50.2056 114.128 50.2941 114.128 50.4051C114.128 50.6108 114.194 50.7547 114.326 50.837C114.457 50.9151 114.636 50.9542 114.862 50.9542ZM114.813 48.0792C115.043 48.0792 115.237 48.1101 115.393 48.1718C115.553 48.2293 115.681 48.3137 115.776 48.4247C115.874 48.5317 115.944 48.6612 115.985 48.8134C116.026 48.9615 116.047 49.126 116.047 49.307V51.312C115.998 51.3203 115.928 51.3326 115.837 51.3491C115.751 51.3614 115.652 51.3737 115.541 51.3861C115.43 51.3984 115.309 51.4087 115.177 51.4169C115.05 51.4293 114.922 51.4354 114.795 51.4354C114.614 51.4354 114.447 51.4169 114.295 51.3799C114.143 51.3429 114.011 51.2853 113.9 51.2072C113.789 51.1249 113.703 51.018 113.641 50.8864C113.579 50.7547 113.548 50.5964 113.548 50.4113C113.548 50.2344 113.583 50.0823 113.653 49.9548C113.727 49.8273 113.826 49.7244 113.949 49.6463C114.073 49.5681 114.217 49.5105 114.381 49.4735C114.546 49.4365 114.719 49.418 114.899 49.418C114.957 49.418 115.017 49.4221 115.078 49.4303C115.14 49.4345 115.198 49.4427 115.251 49.455C115.309 49.4632 115.358 49.4715 115.399 49.4797C115.44 49.4879 115.469 49.4941 115.486 49.4982V49.3378C115.486 49.2432 115.475 49.1507 115.455 49.0602C115.434 48.9656 115.397 48.8833 115.344 48.8134C115.29 48.7394 115.216 48.6818 115.122 48.6406C115.031 48.5954 114.912 48.5728 114.764 48.5728C114.575 48.5728 114.408 48.5872 114.264 48.616C114.124 48.6406 114.019 48.6674 113.949 48.6962L113.882 48.2211C113.956 48.1882 114.079 48.1574 114.252 48.1286C114.424 48.0957 114.612 48.0792 114.813 48.0792Z" fill="#31ACA5"/>
<path d="M111.826 51.4601C111.526 51.4601 111.253 51.4108 111.006 51.3121C110.759 51.2134 110.547 51.0694 110.37 50.8802C110.194 50.691 110.056 50.4586 109.957 50.183C109.862 49.9034 109.815 49.5846 109.815 49.2268C109.815 48.8689 109.869 48.5522 109.976 48.2767C110.087 47.997 110.235 47.7625 110.42 47.5733C110.605 47.3841 110.821 47.2402 111.068 47.1415C111.314 47.0428 111.578 46.9934 111.857 46.9934C112.034 46.9934 112.192 47.0057 112.332 47.0304C112.476 47.0551 112.6 47.0839 112.702 47.1168C112.809 47.1497 112.896 47.1826 112.962 47.2155C113.027 47.2484 113.073 47.2731 113.097 47.2895L112.925 47.7831C112.888 47.7584 112.834 47.7317 112.764 47.7029C112.694 47.6741 112.614 47.6453 112.524 47.6165C112.437 47.5877 112.341 47.5651 112.234 47.5487C112.131 47.5281 112.026 47.5178 111.919 47.5178C111.693 47.5178 111.489 47.5569 111.308 47.635C111.127 47.7132 110.973 47.8263 110.845 47.9744C110.718 48.1224 110.619 48.3034 110.549 48.5173C110.483 48.727 110.451 48.9635 110.451 49.2268C110.451 49.4818 110.479 49.7142 110.537 49.9239C110.599 50.1337 110.689 50.3147 110.808 50.4668C110.928 50.6149 111.076 50.7301 111.253 50.8123C111.434 50.8946 111.643 50.9357 111.882 50.9357C112.157 50.9357 112.386 50.9069 112.567 50.8494C112.748 50.7918 112.883 50.7404 112.974 50.6951L113.128 51.1887C113.099 51.2092 113.048 51.236 112.974 51.2689C112.9 51.2977 112.807 51.3265 112.696 51.3553C112.585 51.384 112.456 51.4087 112.308 51.4293C112.16 51.4498 111.999 51.4601 111.826 51.4601Z" fill="#31ACA5"/>
<path d="M107.326 51.3675C107.256 51.1824 107.19 51.0015 107.128 50.8246C107.066 50.6436 107.003 50.4606 106.937 50.2755H105L104.611 51.3675H103.988C104.152 50.9151 104.307 50.4976 104.451 50.1151C104.594 49.7285 104.734 49.3624 104.87 49.0169C105.01 48.6714 105.148 48.3424 105.283 48.0298C105.419 47.7131 105.561 47.4005 105.709 47.092H106.258C106.406 47.4005 106.548 47.7131 106.684 48.0298C106.82 48.3424 106.955 48.6714 107.091 49.0169C107.231 49.3624 107.373 49.7285 107.517 50.1151C107.661 50.4976 107.815 50.9151 107.979 51.3675H107.326ZM106.764 49.7819C106.632 49.4241 106.501 49.0786 106.369 48.7455C106.242 48.4082 106.108 48.0853 105.968 47.7769C105.824 48.0853 105.686 48.4082 105.555 48.7455C105.427 49.0786 105.3 49.4241 105.172 49.7819H106.764Z" fill="#31ACA5"/>
</svg>
