<svg width="324" height="109" viewBox="0 0 324 109" fill="none" xmlns="http://www.w3.org/2000/svg">
<path fill-rule="evenodd" clip-rule="evenodd" d="M39.7546 8.68841C40.4174 10.6835 40.7489 13.4766 40.55 15.6712C40.4174 18.1983 39.3568 21.3239 37.3682 25.6465C34.8493 31.1662 34.4516 32.4963 34.5179 36.2869C34.5179 38.681 34.9819 41.6071 35.5122 42.8042L36.4402 44.9988C36.6391 36.3534 36.9705 35.2894 40.6826 27.9741C43.7317 22.0554 44.726 19.3288 44.726 17.3337C44.726 15.8707 43.9969 13.2106 43.1352 11.3485C42.2734 9.55294 40.9477 7.42486 40.1523 6.69333L38.7603 5.36328L39.7546 8.68841ZM47.0461 29.9691C50.2278 24.5824 51.0233 22.6538 51.2221 19.8607C51.421 17.9322 51.6199 16.3361 51.7524 16.3361C51.885 16.3361 52.4816 17.4001 53.0119 18.6637C53.5422 19.9272 54.0062 22.2548 54.0062 23.7844C54.0062 25.58 53.4096 27.575 52.4816 28.9716C51.6861 30.2351 49.565 33.2277 47.7752 35.6218C45.9855 38.0159 44.1295 40.8755 43.5992 41.9396C42.7374 43.8681 42.6712 43.8681 42.87 40.277C43.0689 37.2179 43.7317 35.5553 47.0461 29.9691ZM24.1772 24.9814C22.1886 26.0454 18.7417 28.506 16.6205 30.4346C14.433 32.3632 11.5827 35.6218 10.257 37.6169C8.86496 39.6119 7.14151 42.8041 6.41236 44.5996C5.61692 46.4617 4.55633 49.7203 3.95975 51.9149C3.42946 54.1095 2.96545 58.1661 2.96545 60.8927C2.96545 63.6193 3.49575 68.1415 4.2249 70.8681C4.88776 73.5947 6.27978 77.5184 7.27408 79.5134C8.26838 81.5085 10.3896 84.8336 11.9141 86.8287C13.4387 88.8238 16.2891 91.7499 18.2777 93.2794C20.2663 94.809 23.7132 96.9371 26.0332 98.0676C28.2869 99.1982 31.999 100.661 34.319 101.26C36.5728 101.858 40.9477 102.324 44.0631 102.39C47.1786 102.39 51.3547 101.991 53.3433 101.526C55.3319 100.994 59.1102 99.6637 61.6291 98.4667C64.148 97.3361 67.9263 95.0085 69.9149 93.346C71.9035 91.6834 74.7538 88.7573 76.2784 86.7622C77.803 84.7671 79.7253 81.708 80.6533 79.8459C81.5813 78.0504 82.9071 74.8583 83.5699 72.8632C84.4979 70.0701 84.8294 67.277 84.8294 60.8927C84.8294 54.575 84.4979 51.7154 83.5699 48.9223C82.9071 46.9272 81.3162 43.3361 79.9905 40.942C78.6647 38.4814 75.6818 34.6908 73.0967 32.1637C70.6441 29.6366 67.5949 27.176 66.468 26.6439L64.2805 25.5799C67.396 27.9075 69.5172 29.8361 71.1081 31.4321C72.6327 33.0282 75.019 36.0208 76.3447 38.1489C77.6704 40.2105 79.5265 44.0011 80.4545 46.5947C81.8465 50.5183 82.1116 52.4469 82.1116 58.8977C82.1116 65.3484 81.9128 67.2105 80.5208 70.8681C79.659 73.2622 78.2007 76.5208 77.2727 78.1834C76.3447 79.8459 73.6932 83.1046 71.3069 85.4987C68.5892 88.1588 65.1423 90.8189 62.2919 92.2819C59.7731 93.612 55.7296 95.208 53.3433 95.8065C50.9569 96.4051 46.6483 96.9371 43.7317 96.9371C40.8151 96.9371 36.5065 96.4051 34.1201 95.8065C31.7338 95.208 28.0218 93.745 25.8343 92.6144C23.6469 91.4174 19.736 88.3583 17.2171 85.8312C14.5656 83.2376 11.5827 79.4469 10.4558 77.1858C9.26268 74.9913 7.73809 70.8016 6.94265 67.8755C6.2135 64.9494 5.61692 60.9592 5.61692 59.0972C5.61692 57.1686 6.01464 53.5775 6.54493 51.1169C7.07522 48.5898 8.13581 45.1316 8.93125 43.2696C9.72669 41.474 11.3176 38.6144 12.4444 36.9518C13.5713 35.2893 15.8913 32.5627 17.5485 30.7671C19.272 29.038 22.3211 26.7105 24.376 25.6464C26.4309 24.5159 28.1544 23.5183 28.1544 23.3188C28.1544 23.1193 28.0881 22.9863 27.9555 22.9863C27.9008 22.9863 26.716 23.6212 25.1851 24.4416L25.1839 24.4422L25.1733 24.4479C24.8539 24.619 24.5194 24.7982 24.1772 24.9814ZM52.3491 47.2598C53.476 46.5948 55.3983 45.7967 56.6577 45.5307C57.9172 45.2647 59.3755 45.1982 59.8395 45.3312C60.2372 45.4642 61.1652 45.5972 61.8281 45.5972C62.4247 45.5972 64.1481 46.5948 65.6064 47.7918C67.595 49.4544 68.5893 51.0504 69.5173 53.9765C70.6442 57.4347 70.7105 58.4322 70.0476 62.2228C69.6499 64.6169 68.4567 68.1416 67.4624 70.1367C66.4019 72.1317 64.1481 75.1243 62.2921 76.7869C60.5023 78.516 58.116 80.1785 55.0006 81.3091L55.0668 73.9273C55.1994 67.0775 55.332 66.213 57.5195 61.2253C58.7789 58.2992 60.0383 55.1736 60.2372 54.2425C60.7012 52.6465 60.6349 52.6465 59.044 54.5751C58.0497 55.7056 56.5252 58.1662 53.6748 63.5529L52.548 62.0233C51.8851 61.2253 51.3548 60.2278 51.3548 59.8953C51.3548 59.5628 50.1616 57.7672 46.1844 52.58L48.2393 50.5184C49.4325 49.3879 51.2222 47.9248 52.3491 47.2598ZM26.1657 48.7897C25.6355 49.0557 24.3097 49.8537 23.3154 50.5853C22.2548 51.3168 20.664 53.4449 19.8022 55.2404C18.4765 57.967 18.2114 59.5631 18.2114 64.0853C18.2114 67.6099 18.6091 70.7355 19.4045 73.0631C20.0674 74.9252 21.8571 78.3168 23.3154 80.5114C24.7737 82.706 26.9612 85.2996 28.2206 86.2971C29.4801 87.2281 31.8001 88.6247 33.4573 89.4227C35.247 90.2207 37.8322 90.8193 39.8871 90.8193C41.8094 90.8193 44.0631 90.4868 44.8586 90.0877C45.7203 89.6887 47.2449 88.5582 48.2392 87.5607C49.2998 86.6296 50.5592 85.0336 51.0895 84.036C51.6198 82.972 52.3489 80.7774 52.6804 79.0483C53.2107 76.7872 53.2107 74.4597 52.6804 71.201C52.2827 68.4744 51.0895 64.7503 49.8301 62.2897C48.7032 59.9621 46.3832 56.5705 44.726 54.8414C43.0688 53.1124 40.1522 50.9178 38.2299 49.9867C35.6447 48.7232 33.7887 48.2577 31.0047 48.3242C28.8835 48.3242 26.696 48.5237 26.1657 48.7897ZM26.8949 53.1788C26.8286 53.3783 27.8892 56.3709 29.2149 59.6961C30.5407 63.0877 32.2641 67.0779 32.9933 68.5409C33.7224 70.004 36.2413 74.3931 38.5613 78.3168C40.8151 82.3069 42.87 85.366 43.0688 85.1665C43.2677 84.967 42.4723 82.3734 41.3454 79.3143C40.2185 76.3217 38.2299 71.733 36.9705 69.2059C35.711 66.6123 33.1258 62.0237 31.2035 58.9645C29.3475 55.9054 27.6241 53.3118 27.4252 53.1123C27.1601 52.9793 26.9612 52.9793 26.8949 53.1788Z" fill="#F9F9F9"/>
<path fill-rule="evenodd" clip-rule="evenodd" d="M285.823 53.3359C278.04 71.9618 275.574 76.9647 272.646 80.6591L270.283 83.56C269.75 84.2148 270.218 85.195 271.063 85.1915L285.07 85.1344C286.004 85.1306 286.438 83.9416 285.759 83.2993C283.912 81.5526 282.821 80.1447 282.125 79.0428C281.2 77.5035 280.506 75.0405 280.506 73.2703C280.506 71.577 280.66 69.4219 280.892 68.4983C281.277 66.8051 281.508 66.7281 289.908 66.959L298.238 67.1076C298.42 67.1108 298.582 67.2227 298.65 67.3916C303.934 80.5844 304.001 80.7516 302.7 82.9681L302.258 83.6788C301.845 84.3436 302.321 85.2038 303.104 85.2066L320.013 85.2681C320.914 85.2713 321.368 84.1626 320.75 83.5059C317.564 80.1184 315.963 77.3328 314.644 74.04C313.632 71.4239 310.873 64.6284 307.929 57.3787C307.062 55.2434 306.179 53.0688 305.32 50.9499C301.544 41.6369 298.076 33.2475 297.614 32.3239C297.074 31.3234 296.381 30.5537 295.995 30.5537C295.61 30.5537 291.064 40.7903 285.823 53.3359ZM289.754 47.4863C289.754 47.7172 288.212 51.7194 286.286 56.3375C284.359 60.9555 282.818 64.8808 282.818 65.0347C282.818 65.1117 286.132 65.1886 290.139 65.1886C294.146 65.1886 297.46 65.0347 297.46 64.8038C297.46 64.6289 296.62 62.4675 295.476 59.5231C295.109 58.5797 294.712 57.556 294.3 56.4914C292.528 52.1813 290.755 48.2559 290.37 47.8711C290.062 47.4863 289.754 47.2554 289.754 47.4863Z" fill="#F9F9F9"/>
<path fill-rule="evenodd" clip-rule="evenodd" d="M233.499 33.0936C234.964 35.4026 235.041 37.0189 235.041 57.8769C235.118 79.1198 235.041 80.2743 233.499 82.3524C232.652 83.5069 231.958 84.5844 231.958 84.8153C231.958 85.0462 236.12 85.2001 241.206 85.2001H248.676C249.455 85.2001 249.933 84.3462 249.558 83.663C247.551 80.0125 247.37 77.779 247.37 69.9607V60.8011C247.37 60.2488 247.83 59.8011 248.382 59.8009C265.923 59.7949 267.463 59.6186 270.489 58.1078C272.8 56.9533 274.496 55.337 275.652 53.2589C276.885 51.1038 277.424 48.8718 277.424 45.7162C277.424 42.9454 276.885 40.3285 275.96 38.4813C275.189 36.865 273.879 34.9408 273.109 34.2481C272.261 33.4784 270.257 32.4009 268.562 31.7852C266.25 30.8616 261.472 30.6307 248.757 30.5537H233.766C232.997 30.5537 232.515 31.3865 232.9 32.0531L233.499 33.0936ZM247.37 45.1775V57.2619C247.37 57.8141 247.821 58.2624 248.373 58.2578C254.497 58.2067 257.019 57.6767 258.775 56.7995C260.393 55.9528 262.32 54.1056 263.322 52.4124C264.478 50.4112 265.017 48.1022 265.094 45.3314C265.094 43.1764 264.632 40.4056 264.015 39.1741C263.399 38.0196 262.089 36.3263 261.087 35.4797C260.162 34.5561 258.082 33.4785 256.617 32.9398C255.153 32.478 252.456 32.0931 250.607 32.0931H248.37C247.818 32.0931 247.37 32.5409 247.37 33.0931V45.1775Z" fill="#F9F9F9"/>
<path d="M151.336 52.3304C150.876 36.1335 150.646 33.8861 149.419 32.3361L149.311 32.2042C148.775 31.5482 149.246 30.5644 150.094 30.5714L157.318 30.6312C162.532 30.6312 166.75 30.8637 166.75 31.1737C166.75 31.5612 166.136 32.4136 165.369 33.2661C164.219 34.5061 164.066 36.831 163.836 50.703C163.682 60.1576 163.912 68.2948 164.373 70.7748C164.909 73.1772 166.06 75.8121 167.287 77.207C168.514 78.602 170.354 80.1519 171.504 80.6944C172.731 81.3144 175.645 81.7794 178.022 81.7794C181.166 81.7019 183.314 81.2369 185.461 79.9969C187.071 79.067 189.295 76.8195 190.445 74.8046C192.437 71.3209 192.439 71.1626 192.668 53.9353L192.669 53.8804C192.878 39.1342 192.771 36.6678 190.525 32.1261C190.188 31.4464 190.678 30.6417 191.436 30.6503L203.405 30.7862L203.483 30.7876C216.902 31.0187 217.138 31.0228 220.276 33.1111C222.269 34.5061 224.11 36.521 225.03 38.5359C225.874 40.3959 226.564 43.5732 226.564 45.7432C226.564 48.3006 226.027 50.7805 224.877 53.0279C223.65 55.4303 222.116 56.9803 219.662 58.2977C216.518 59.9251 215.291 60.0801 206.396 60.0801C200.414 60.0801 196.657 59.7702 196.657 59.3052C196.657 58.8402 198.651 58.5302 201.028 58.5302C204.402 58.5302 206.089 58.1427 208.083 56.8253C209.54 55.8178 211.457 54.0354 212.3 52.8729C213.297 51.478 213.988 49.153 214.141 46.6731C214.371 43.6507 213.988 41.7908 212.607 39.1559C211.304 36.5985 209.923 35.2035 207.393 33.8861C204.862 32.6461 202.868 32.1812 200.108 32.3361C196.503 32.5686 196.197 32.7236 195.353 35.281C194.816 36.986 194.433 43.3407 194.356 51.9429C194.356 60.0801 193.896 67.6749 193.359 70.1548C192.823 72.4797 191.596 75.7346 190.522 77.362C189.448 78.9895 186.918 81.3919 184.771 82.7868C181.09 85.1892 180.706 85.2667 172.808 85.2667H172.808C164.679 85.2667 164.679 85.2667 160.385 82.3218C156.934 80.0744 155.554 78.5245 153.867 74.9596C151.873 70.6198 151.796 70.1548 151.336 52.3304Z" fill="#F9F9F9"/>
<path d="M115.222 33.5905C116.982 32.3508 120.042 30.9563 121.954 30.4914C123.943 29.8716 127.462 29.6392 130.368 29.8716C133.352 30.1815 136.947 31.1112 139.395 32.1959C141.689 33.358 144.061 35.2174 145.055 36.6895C145.973 38.0066 146.891 40.5633 147.044 42.2677C147.274 44.592 146.968 45.9091 145.744 47.5361C144.367 49.318 143.602 49.6279 140.313 49.6279C137.1 49.6279 136.105 49.2406 134.423 47.4586C133.199 46.219 131.592 43.0425 130.751 40.3308C129.909 37.6192 128.609 34.5976 127.92 33.5905C127.003 32.4283 125.779 31.8085 124.249 31.8085C123.025 31.8085 121.495 32.4283 120.883 33.2031C120.271 33.9004 119.277 35.7598 118.588 37.2318C117.976 38.7039 117.211 42.5776 116.905 45.7542C116.599 49.318 116.752 53.6567 117.288 56.9881C117.823 59.9322 119.047 64.2709 120.042 66.5177C121.342 69.1518 123.025 71.3212 125.167 72.8707C127.92 74.8076 129.144 75.195 132.663 75.195C135.646 75.195 137.788 74.6526 139.93 73.3355C141.613 72.3284 144.137 70.159 145.514 68.532C146.815 66.9051 147.962 65.7429 147.962 66.1303C147.962 66.4402 147.197 68.532 146.203 70.7788C145.208 72.9482 142.913 76.5121 141.001 78.5264C139.165 80.6183 136.258 82.9425 134.576 83.7948C132.51 84.802 129.833 85.2668 126.161 85.2668C121.801 85.2668 120.042 84.8794 116.676 83.175C114.381 81.9354 111.551 79.766 110.327 78.294C109.103 76.822 107.42 73.6454 106.502 71.3212C105.125 67.9122 104.819 65.3555 104.819 58.5377C104.743 51.9522 105.049 49.1631 106.196 46.1415C107.037 44.0497 108.644 40.7957 109.868 39.0138C111.015 37.1543 113.463 34.7526 115.222 33.5905Z" fill="#F9F9F9"/>
<path fill-rule="evenodd" clip-rule="evenodd" d="M169.77 0.886558C168.845 1.04118 167.69 1.73699 167.304 2.35548C166.688 3.12859 166.765 3.59246 167.767 4.13364C168.537 4.44289 171.543 5.44794 174.471 6.22106C177.322 6.99417 180.019 8.15385 180.405 8.69503C180.944 9.39083 179.942 9.8547 176.629 10.4732C174.24 10.9371 169.847 12.0194 166.919 12.9472C163.991 13.8749 161.216 15.2665 160.754 15.9623C160.061 17.0447 160.292 17.6632 161.833 19.2094C163.682 21.1422 164.222 21.2195 174.317 21.3741C181.252 21.5288 185.259 21.9153 185.876 22.5338C186.723 23.3069 186.646 23.6935 185.722 24.7758C185.105 25.4716 183.179 26.6313 181.483 27.4044C178.401 28.796 178.401 28.796 180.713 28.8734C181.946 28.8734 185.105 28.4095 187.648 27.791C190.191 27.1725 192.888 26.0128 193.659 25.317C194.43 24.5439 194.969 23.2296 194.815 22.3792C194.661 21.4514 193.197 20.1371 191.116 19.1321C188.419 17.7405 185.645 17.2766 178.093 16.8127C172.93 16.4262 168.46 15.9623 168.306 15.6531C168.152 15.2665 168.614 14.88 169.308 14.7253C169.66 14.6546 170.529 14.4545 171.67 14.1915C173.023 13.8796 174.76 13.4793 176.474 13.1018C179.634 12.3287 182.87 11.4009 183.564 11.0917C184.335 10.7051 184.951 9.8547 184.951 9.23621C184.951 8.61772 183.795 7.61267 182.408 6.99417C181.098 6.37568 177.63 5.21601 174.779 4.44289C171.928 3.66978 169.77 2.89666 170.001 2.66472C170.233 2.43279 171.543 1.89161 172.853 1.35043L172.853 1.35043C175.087 0.577312 175.087 0.5 173.392 0.5C172.313 0.5 170.695 0.731935 169.77 0.886558ZM176.474 24.3122C176.474 24.6987 175.087 25.4718 173.392 25.8584C171.697 26.245 170.31 26.7861 170.31 27.0181C170.31 27.25 171.62 27.1727 173.238 26.9408C174.779 26.7088 177.091 26.0903 178.247 25.6265C179.403 25.0853 180.404 24.4668 180.327 24.1576C180.327 23.771 179.48 23.5391 178.401 23.5391C177.322 23.5391 176.474 23.8483 176.474 24.3122Z" fill="#F9F9F9"/>
<path d="M314.973 105.504C315.066 105.546 315.183 105.584 315.326 105.617C315.476 105.659 315.623 105.68 315.766 105.68C316.227 105.68 316.588 105.575 316.848 105.366C317.108 105.164 317.343 104.833 317.552 104.372C317.024 103.365 316.529 102.3 316.068 101.176C315.615 100.044 315.237 98.8991 314.936 97.7417H316.194C316.286 98.1191 316.395 98.5259 316.521 98.962C316.655 99.3981 316.802 99.8469 316.961 100.308C317.12 100.769 317.292 101.231 317.477 101.692C317.661 102.153 317.854 102.598 318.056 103.026C318.374 102.145 318.651 101.273 318.886 100.409C319.121 99.5449 319.343 98.6559 319.553 97.7417H320.76C320.458 98.9746 320.123 100.161 319.754 101.302C319.385 102.434 318.986 103.495 318.559 104.485C318.391 104.862 318.215 105.185 318.03 105.454C317.854 105.73 317.657 105.957 317.439 106.133C317.221 106.309 316.974 106.439 316.697 106.523C316.428 106.607 316.122 106.649 315.778 106.649C315.686 106.649 315.59 106.64 315.489 106.624C315.388 106.615 315.288 106.598 315.187 106.573C315.095 106.557 315.007 106.536 314.923 106.51C314.847 106.485 314.793 106.464 314.759 106.447L314.973 105.504Z" fill="#F9F9F9"/>
<path d="M311.774 97.7418H314.252V98.7231H311.774V101.742C311.774 102.07 311.799 102.342 311.849 102.56C311.899 102.77 311.975 102.938 312.075 103.063C312.176 103.181 312.302 103.265 312.453 103.315C312.604 103.365 312.78 103.39 312.981 103.39C313.334 103.39 313.614 103.353 313.824 103.277C314.042 103.193 314.193 103.135 314.277 103.101L314.504 104.07C314.386 104.129 314.181 104.2 313.887 104.284C313.594 104.376 313.258 104.422 312.881 104.422C312.436 104.422 312.067 104.368 311.774 104.259C311.488 104.141 311.258 103.969 311.082 103.743C310.905 103.516 310.78 103.24 310.704 102.912C310.637 102.577 310.604 102.191 310.604 101.755V95.9176L311.774 95.7163V97.7418Z" fill="#F9F9F9"/>
<path d="M308.667 104.284H307.497V97.7418H308.667V104.284ZM308.076 96.5592C307.866 96.5592 307.686 96.4922 307.535 96.358C307.392 96.2154 307.321 96.0267 307.321 95.7918C307.321 95.557 307.392 95.3725 307.535 95.2383C307.686 95.0957 307.866 95.0244 308.076 95.0244C308.285 95.0244 308.461 95.0957 308.604 95.2383C308.755 95.3725 308.83 95.557 308.83 95.7918C308.83 96.0267 308.755 96.2154 308.604 96.358C308.461 96.4922 308.285 96.5592 308.076 96.5592Z" fill="#F9F9F9"/>
<path d="M300.273 97.9301C300.541 97.863 300.898 97.7917 301.342 97.7163C301.787 97.6408 302.298 97.603 302.877 97.603C303.397 97.603 303.829 97.6785 304.173 97.8295C304.517 97.9721 304.789 98.1775 304.991 98.4459C305.2 98.7059 305.347 99.0204 305.431 99.3895C305.515 99.7585 305.557 100.165 305.557 100.61V104.283H304.387V100.861C304.387 100.459 304.357 100.115 304.299 99.8298C304.248 99.5446 304.16 99.314 304.035 99.1379C303.909 98.9617 303.741 98.8359 303.531 98.7604C303.322 98.6766 303.062 98.6346 302.751 98.6346C302.626 98.6346 302.496 98.6388 302.361 98.6472C302.227 98.6556 302.097 98.6682 301.971 98.685C301.854 98.6933 301.745 98.7059 301.644 98.7227C301.552 98.7395 301.485 98.7521 301.443 98.7604V104.283H300.273V97.9301Z" fill="#F9F9F9"/>
<path d="M298.257 104.095C297.989 104.162 297.633 104.233 297.188 104.309C296.752 104.384 296.244 104.422 295.666 104.422C295.163 104.422 294.739 104.351 294.395 104.208C294.051 104.057 293.774 103.847 293.565 103.579C293.355 103.311 293.204 102.996 293.112 102.636C293.02 102.267 292.974 101.86 292.974 101.415V97.7417H294.144V101.164C294.144 101.96 294.269 102.531 294.521 102.875C294.773 103.218 295.196 103.39 295.792 103.39C295.917 103.39 296.047 103.386 296.182 103.378C296.316 103.369 296.442 103.361 296.559 103.353C296.676 103.336 296.781 103.323 296.874 103.315C296.974 103.298 297.045 103.281 297.087 103.265V97.7417H298.257V104.095Z" fill="#F9F9F9"/>
<path d="M282.213 97.9301C282.481 97.863 282.833 97.7917 283.27 97.7163C283.714 97.6408 284.226 97.603 284.804 97.603C285.224 97.603 285.576 97.6617 285.861 97.7792C286.146 97.8882 286.385 98.0517 286.578 98.2698C286.637 98.2279 286.729 98.1692 286.855 98.0937C286.981 98.0182 287.136 97.9469 287.32 97.8798C287.505 97.8043 287.71 97.7414 287.937 97.6911C288.163 97.6324 288.407 97.603 288.667 97.603C289.17 97.603 289.581 97.6785 289.9 97.8295C290.218 97.9721 290.466 98.1775 290.642 98.4459C290.826 98.7143 290.948 99.033 291.007 99.4021C291.074 99.7711 291.107 100.174 291.107 100.61V104.283H289.937V100.861C289.937 100.476 289.916 100.144 289.874 99.8675C289.841 99.5908 289.77 99.3601 289.66 99.1756C289.56 98.9911 289.417 98.8569 289.233 98.773C289.057 98.6808 288.826 98.6346 288.541 98.6346C288.147 98.6346 287.82 98.6892 287.56 98.7982C287.308 98.8988 287.136 98.9911 287.044 99.075C287.111 99.293 287.161 99.5321 287.195 99.7921C287.228 100.052 287.245 100.325 287.245 100.61V104.283H286.075V100.861C286.075 100.476 286.054 100.144 286.012 99.8675C285.97 99.5908 285.895 99.3601 285.786 99.1756C285.685 98.9911 285.542 98.8569 285.358 98.773C285.182 98.6808 284.955 98.6346 284.679 98.6346C284.561 98.6346 284.435 98.6388 284.301 98.6472C284.167 98.6556 284.037 98.6682 283.911 98.685C283.794 98.6933 283.685 98.7059 283.584 98.7227C283.483 98.7395 283.416 98.7521 283.383 98.7604V104.283H282.213V97.9301Z" fill="#F9F9F9"/>
<path d="M271.377 97.9301C271.645 97.863 271.997 97.7917 272.434 97.7163C272.878 97.6408 273.39 97.603 273.968 97.603C274.388 97.603 274.74 97.6617 275.025 97.7792C275.31 97.8882 275.549 98.0517 275.742 98.2698C275.801 98.2279 275.893 98.1692 276.019 98.0937C276.145 98.0182 276.3 97.9469 276.485 97.8798C276.669 97.8043 276.875 97.7414 277.101 97.6911C277.327 97.6324 277.571 97.603 277.831 97.603C278.334 97.603 278.745 97.6785 279.064 97.8295C279.382 97.9721 279.63 98.1775 279.806 98.4459C279.99 98.7143 280.112 99.033 280.171 99.4021C280.238 99.7711 280.271 100.174 280.271 100.61V104.283H279.101V100.861C279.101 100.476 279.08 100.144 279.038 99.8675C279.005 99.5908 278.934 99.3601 278.825 99.1756C278.724 98.9911 278.581 98.8569 278.397 98.773C278.221 98.6808 277.99 98.6346 277.705 98.6346C277.311 98.6346 276.984 98.6892 276.724 98.7982C276.472 98.8988 276.3 98.9911 276.208 99.075C276.275 99.293 276.325 99.5321 276.359 99.7921C276.392 100.052 276.409 100.325 276.409 100.61V104.283H275.239V100.861C275.239 100.476 275.218 100.144 275.176 99.8675C275.134 99.5908 275.059 99.3601 274.95 99.1756C274.849 98.9911 274.706 98.8569 274.522 98.773C274.346 98.6808 274.119 98.6346 273.843 98.6346C273.725 98.6346 273.599 98.6388 273.465 98.6472C273.331 98.6556 273.201 98.6682 273.075 98.685C272.958 98.6933 272.849 98.7059 272.748 98.7227C272.647 98.7395 272.58 98.7521 272.547 98.7604V104.283H271.377V97.9301Z" fill="#F9F9F9"/>
<path d="M269.731 101.013C269.731 101.533 269.655 102.002 269.504 102.422C269.353 102.841 269.139 103.202 268.863 103.504C268.594 103.806 268.271 104.04 267.894 104.208C267.517 104.367 267.106 104.447 266.661 104.447C266.217 104.447 265.806 104.367 265.428 104.208C265.051 104.04 264.724 103.806 264.447 103.504C264.179 103.202 263.969 102.841 263.818 102.422C263.667 102.002 263.591 101.533 263.591 101.013C263.591 100.501 263.667 100.036 263.818 99.6162C263.969 99.1884 264.179 98.8236 264.447 98.5217C264.724 98.2197 265.051 97.9891 265.428 97.8297C265.806 97.662 266.217 97.5781 266.661 97.5781C267.106 97.5781 267.517 97.662 267.894 97.8297C268.271 97.9891 268.594 98.2197 268.863 98.5217C269.139 98.8236 269.353 99.1884 269.504 99.6162C269.655 100.036 269.731 100.501 269.731 101.013ZM268.51 101.013C268.51 100.275 268.343 99.6917 268.007 99.2639C267.68 98.8278 267.231 98.6097 266.661 98.6097C266.091 98.6097 265.638 98.8278 265.302 99.2639C264.975 99.6917 264.812 100.275 264.812 101.013C264.812 101.751 264.975 102.338 265.302 102.774C265.638 103.202 266.091 103.416 266.661 103.416C267.231 103.416 267.68 103.202 268.007 102.774C268.343 102.338 268.51 101.751 268.51 101.013Z" fill="#F9F9F9"/>
<path d="M260.164 104.472C259.551 104.472 258.994 104.371 258.49 104.17C257.987 103.969 257.555 103.675 257.195 103.29C256.834 102.904 256.553 102.43 256.352 101.868C256.159 101.298 256.062 100.648 256.062 99.9179C256.062 99.1883 256.171 98.5425 256.389 97.9805C256.616 97.4102 256.918 96.9322 257.295 96.5463C257.673 96.1605 258.113 95.867 258.616 95.6657C259.119 95.4644 259.656 95.3638 260.227 95.3638C260.587 95.3638 260.91 95.3889 261.195 95.4393C261.489 95.4896 261.74 95.5483 261.95 95.6154C262.168 95.6825 262.344 95.7496 262.478 95.8167C262.613 95.8838 262.705 95.9341 262.755 95.9676L262.403 96.9741C262.328 96.9238 262.218 96.8692 262.076 96.8105C261.933 96.7518 261.77 96.6931 261.585 96.6344C261.409 96.5757 261.212 96.5296 260.994 96.496C260.784 96.4541 260.57 96.4331 260.352 96.4331C259.891 96.4331 259.476 96.5128 259.107 96.6722C258.738 96.8315 258.423 97.0622 258.163 97.3641C257.903 97.666 257.702 98.0351 257.559 98.4712C257.425 98.8989 257.358 99.3812 257.358 99.9179C257.358 100.438 257.417 100.912 257.534 101.34C257.66 101.767 257.845 102.136 258.088 102.447C258.331 102.749 258.633 102.983 258.994 103.151C259.363 103.319 259.79 103.403 260.277 103.403C260.839 103.403 261.304 103.344 261.673 103.227C262.042 103.109 262.319 103.004 262.504 102.912L262.818 103.919C262.759 103.961 262.655 104.015 262.504 104.082C262.353 104.141 262.164 104.2 261.938 104.258C261.711 104.317 261.447 104.367 261.145 104.409C260.843 104.451 260.516 104.472 260.164 104.472Z" fill="#F9F9F9"/>
<path d="M246.035 101.025C246.035 100.446 246.119 99.9432 246.287 99.5155C246.454 99.0794 246.677 98.7187 246.953 98.4336C247.23 98.1484 247.549 97.9345 247.91 97.792C248.27 97.6494 248.639 97.5781 249.017 97.5781C249.897 97.5781 250.572 97.8549 251.042 98.4084C251.512 98.9536 251.747 99.7881 251.747 100.912C251.747 100.962 251.747 101.029 251.747 101.113C251.747 101.189 251.742 101.26 251.734 101.327H247.255C247.306 102.006 247.503 102.522 247.847 102.875C248.191 103.227 248.727 103.403 249.457 103.403C249.868 103.403 250.212 103.369 250.489 103.302C250.774 103.227 250.988 103.155 251.13 103.088L251.294 104.07C251.151 104.145 250.9 104.225 250.539 104.309C250.187 104.393 249.784 104.435 249.331 104.435C248.761 104.435 248.266 104.351 247.847 104.183C247.436 104.007 247.096 103.768 246.828 103.466C246.559 103.164 246.358 102.807 246.224 102.396C246.098 101.977 246.035 101.52 246.035 101.025ZM250.526 100.384C250.535 99.8552 250.401 99.4232 250.124 99.0878C249.855 98.7439 249.482 98.572 249.004 98.572C248.736 98.572 248.497 98.6265 248.287 98.7355C248.086 98.8361 247.914 98.9703 247.771 99.1381C247.629 99.3058 247.515 99.4987 247.431 99.7168C247.356 99.9349 247.306 100.157 247.281 100.384H250.526ZM250.514 95.2633L248.74 96.9868L248.149 96.4584L249.759 94.521L250.514 95.2633Z" fill="#F9F9F9"/>
<path d="M244.101 94.521C244.445 94.521 244.738 94.5462 244.982 94.5965C245.233 94.6468 245.409 94.6929 245.51 94.7349L245.296 95.7413C245.195 95.691 245.053 95.6449 244.868 95.6029C244.684 95.5526 244.457 95.5274 244.189 95.5274C243.644 95.5274 243.262 95.6784 243.044 95.9803C242.826 96.2739 242.717 96.6723 242.717 97.1755V97.7416H245.233V98.7229H242.717V104.284H241.547V97.1503C241.547 96.3116 241.753 95.6658 242.164 95.2129C242.575 94.7516 243.22 94.521 244.101 94.521Z" fill="#F9F9F9"/>
<path d="M237.188 103.441C237.465 103.441 237.708 103.436 237.918 103.428C238.136 103.411 238.316 103.386 238.459 103.353V101.403C238.375 101.361 238.237 101.327 238.044 101.302C237.859 101.268 237.633 101.252 237.364 101.252C237.188 101.252 237 101.264 236.798 101.289C236.605 101.315 236.425 101.369 236.257 101.453C236.098 101.528 235.964 101.637 235.855 101.78C235.746 101.914 235.691 102.095 235.691 102.321C235.691 102.74 235.825 103.034 236.094 103.202C236.362 103.361 236.727 103.441 237.188 103.441ZM237.088 97.5781C237.557 97.5781 237.952 97.641 238.27 97.7668C238.597 97.8843 238.857 98.0562 239.05 98.2826C239.252 98.5007 239.394 98.7649 239.478 99.0752C239.562 99.3772 239.604 99.7126 239.604 100.082V104.17C239.503 104.187 239.361 104.212 239.176 104.246C239 104.271 238.799 104.296 238.572 104.321C238.346 104.346 238.098 104.367 237.83 104.384C237.57 104.409 237.31 104.422 237.05 104.422C236.681 104.422 236.341 104.384 236.031 104.309C235.721 104.233 235.452 104.116 235.226 103.956C234.999 103.789 234.823 103.571 234.697 103.302C234.572 103.034 234.509 102.711 234.509 102.334C234.509 101.973 234.58 101.663 234.723 101.403C234.874 101.143 235.075 100.933 235.326 100.774C235.578 100.614 235.872 100.497 236.207 100.421C236.543 100.346 236.895 100.308 237.264 100.308C237.381 100.308 237.503 100.317 237.629 100.333C237.754 100.342 237.872 100.358 237.981 100.384C238.098 100.4 238.199 100.417 238.283 100.434C238.367 100.451 238.425 100.463 238.459 100.472V100.145C238.459 99.9517 238.438 99.763 238.396 99.5784C238.354 99.3855 238.279 99.2178 238.17 99.0752C238.061 98.9243 237.91 98.8068 237.717 98.723C237.532 98.6307 237.289 98.5846 236.987 98.5846C236.601 98.5846 236.262 98.6139 235.968 98.6726C235.683 98.723 235.469 98.7775 235.326 98.8362L235.188 97.8675C235.339 97.8004 235.591 97.7375 235.943 97.6788C236.295 97.6117 236.677 97.5781 237.088 97.5781Z" fill="#F9F9F9"/>
<path d="M230.997 104.472C230.385 104.472 229.827 104.371 229.324 104.17C228.821 103.969 228.389 103.675 228.028 103.29C227.668 102.904 227.387 102.43 227.185 101.868C226.992 101.298 226.896 100.648 226.896 99.9179C226.896 99.1883 227.005 98.5425 227.223 97.9805C227.45 97.4102 227.751 96.9322 228.129 96.5463C228.506 96.1605 228.947 95.867 229.45 95.6657C229.953 95.4644 230.49 95.3638 231.06 95.3638C231.421 95.3638 231.744 95.3889 232.029 95.4393C232.322 95.4896 232.574 95.5483 232.784 95.6154C233.002 95.6825 233.178 95.7496 233.312 95.8167C233.446 95.8838 233.539 95.9341 233.589 95.9676L233.237 96.9741C233.161 96.9238 233.052 96.8692 232.91 96.8105C232.767 96.7518 232.603 96.6931 232.419 96.6344C232.243 96.5757 232.046 96.5296 231.828 96.496C231.618 96.4541 231.404 96.4331 231.186 96.4331C230.725 96.4331 230.31 96.5128 229.941 96.6722C229.571 96.8315 229.257 97.0622 228.997 97.3641C228.737 97.666 228.536 98.0351 228.393 98.4712C228.259 98.8989 228.192 99.3812 228.192 99.9179C228.192 100.438 228.251 100.912 228.368 101.34C228.494 101.767 228.678 102.136 228.921 102.447C229.165 102.749 229.467 102.983 229.827 103.151C230.196 103.319 230.624 103.403 231.11 103.403C231.672 103.403 232.138 103.344 232.507 103.227C232.876 103.109 233.153 103.004 233.337 102.912L233.652 103.919C233.593 103.961 233.488 104.015 233.337 104.082C233.186 104.141 232.998 104.2 232.771 104.258C232.545 104.317 232.28 104.367 231.979 104.409C231.677 104.451 231.35 104.472 230.997 104.472Z" fill="#F9F9F9"/>
<path d="M221.819 104.283C221.677 103.906 221.543 103.537 221.417 103.176C221.291 102.807 221.161 102.434 221.027 102.057H217.076L216.284 104.283H215.013C215.349 103.361 215.663 102.509 215.957 101.729C216.25 100.941 216.535 100.195 216.812 99.4901C217.097 98.7856 217.378 98.1146 217.655 97.4772C217.932 96.8314 218.221 96.194 218.523 95.5649H219.643C219.945 96.194 220.234 96.8314 220.511 97.4772C220.788 98.1146 221.064 98.7856 221.341 99.4901C221.626 100.195 221.916 100.941 222.209 101.729C222.503 102.509 222.817 103.361 223.153 104.283H221.819ZM220.674 101.05C220.406 100.32 220.138 99.6159 219.869 98.9365C219.609 98.2488 219.337 97.5904 219.052 96.9614C218.758 97.5904 218.477 98.2488 218.209 98.9365C217.949 99.6159 217.689 100.32 217.429 101.05H220.674Z" fill="#F9F9F9"/>
</svg>
